<svg preserveAspectRatio="none" width="100%" height="100%" overflow="visible" style="display: block;" viewBox="0 0 165 160.571" fill="none" xmlns="http://www.w3.org/2000/svg">
<g id="Background" style="mix-blend-mode:color-dodge">
<path d="M15 105.084C9.99955 95.5107 5.00045 62.561 0 65.4187V160.571H165V0C160 17.1839 155 53.1274 150 53.9583C145 54.7892 140 20.5076 135 22.9801C130 25.4527 125 64.6794 120 87.8817C115 111.085 110 118.265 105 123.398C99.9995 128.532 95.0004 131.621 90 108.835C84.9995 86.0502 80.0005 37.3898 75 31.999C69.9995 26.6081 65.0004 64.4854 60 76.0738C54.9995 87.6622 50.0004 72.9602 45 70.4069C39.9995 67.8549 35.0005 77.4501 30 89.1516C24.9996 100.852 20.0004 114.657 15 105.084Z" fill="url(#paint0_linear_0_4)"/>
<path d="M15 105.084C9.99955 95.5107 5.00045 62.561 0 65.4187V160.571H165V0C160 17.1839 155 53.1274 150 53.9583C145 54.7892 140 20.5076 135 22.9801C130 25.4527 125 64.6794 120 87.8817C115 111.085 110 118.265 105 123.398C99.9995 128.532 95.0004 131.621 90 108.835C84.9995 86.0502 80.0005 37.3898 75 31.999C69.9995 26.6081 65.0004 64.4854 60 76.0738C54.9995 87.6622 50.0004 72.9602 45 70.4069C39.9995 67.8549 35.0005 77.4501 30 89.1516C24.9996 100.852 20.0004 114.657 15 105.084Z" stroke="var(--stroke-0, #00FFA3)"/>
</g>
<defs>
<linearGradient id="paint0_linear_0_4" x1="82" y1="10.5712" x2="82" y2="161.071" gradientUnits="userSpaceOnUse">
<stop stop-color="#00FFA3" stop-opacity="0.4"/>
<stop offset="1" stop-color="#00FFA3" stop-opacity="0"/>
</linearGradient>
</defs>
</svg>
