<svg preserveAspectRatio="none" width="100%" height="100%" overflow="visible" style="display: block;" viewBox="0 0 362.99 183.554" fill="none" xmlns="http://www.w3.org/2000/svg">
<g id="All Chart" filter="url(#filter0_f_0_7)">
<path d="M1.49257 86.3972L3.99212 100.738C6.49302 115.079 11.4921 143.761 16.4926 159.203C21.493 174.642 26.4921 176.84 31.4926 179.699C36.493 182.557 41.4921 186.075 46.4926 168.5C51.493 150.926 56.4921 112.259 61.4926 109.402C66.493 106.544 71.4921 139.494 76.4926 149.067C81.493 158.64 86.4921 144.835 91.4926 133.134C96.493 121.433 101.492 111.838 106.493 114.39C111.493 116.943 116.492 131.645 121.493 120.057C126.493 108.468 131.492 70.591 136.493 75.9818C141.493 81.3727 146.492 130.033 151.493 152.818C156.493 175.604 161.492 172.515 166.493 167.381C171.493 162.247 176.492 155.068 181.493 131.865C186.493 108.662 191.492 69.4355 196.493 66.963C201.493 64.4904 206.492 98.7721 211.493 97.9411C216.493 97.1102 221.492 61.1668 226.493 43.9829C231.493 26.799 236.492 28.3733 241.493 39.7138C246.493 51.0557 251.492 72.1639 256.493 79.327C261.493 86.4915 266.492 79.7108 271.493 72.0468C276.493 64.384 281.492 55.8379 286.493 65.0978C291.493 74.3577 296.492 101.424 301.493 109.169C306.493 116.915 311.492 105.34 316.493 103.075C321.493 100.808 326.492 107.852 331.493 115.377C336.493 122.902 341.492 130.91 346.493 111.936C351.493 92.9624 356.492 47.0089 358.993 24.0315L361.493 1.05407" stroke="var(--stroke-0, #8B8B8B)"/>
</g>
<defs>
<filter id="filter0_f_0_7" x="2.98023e-08" y="-2.98023e-08" width="362.99" height="183.554" filterUnits="userSpaceOnUse" color-interpolation-filters="sRGB">
<feFlood flood-opacity="0" result="BackgroundImageFix"/>
<feBlend mode="normal" in="SourceGraphic" in2="BackgroundImageFix" result="shape"/>
<feGaussianBlur stdDeviation="0.5" result="effect1_foregroundBlur_0_7"/>
</filter>
</defs>
</svg>
