<svg xmlns="http://www.w3.org/2000/svg" width="250" height="250" viewBox="0 0 250 250" fill="none">
<path d="M 75.41,129.88 C 75.41,120.16 82.71,114.53 92.06,114.53 C 101.41,114.53 108.64,120.41 108.64,129.82 C 108.64,138.98 101.47,145.69 92.06,145.69 C 82.96,145.69 75.41,139.48 75.41,129.88 Z M 100.91,129.82 C 100.91,123.61 96.81,120.35 92.06,120.35 C 87.25,120.35 83.14,123.61 83.14,129.82 C 83.14,135.76 87.31,139.73 92.06,139.73 C 97.06,139.73 100.91,135.82 100.91,129.82 Z" fill="#FFFFFF"/>
<path d="M 143.98,127.4 V 145.26 H 136.37 V 128.08 C 136.37,123.15 134.29,120.53 129.54,120.53 C 123.97,120.53 121.36,124.26 121.36,130.01 V 145.26 H 113.94 V 115.02 H 121.05 L 121.17,118.75 C 123.53,115.89 126.67,114.53 131.11,114.53 C 139.67,114.53 143.98,119.06 143.98,127.4 Z" fill="#FFFFFF"/>
<path d="M 147.77,142.62 L 150.73,136.55 C 154.05,138.85 157.72,139.79 161.91,139.79 C 165.7,139.79 167.66,138.67 167.66,136.31 C 167.66,134.35 166.12,133.41 161.07,132.65 C 153.16,131.41 149.25,129.11 149.25,123.93 C 149.25,118.36 154.43,114.71 162.52,114.71 C 167.05,114.71 170.74,115.65 173.76,117.55 L 170.99,123.27 C 168.31,121.55 165.29,120.66 161.85,120.66 C 157.91,120.66 156.25,121.96 156.25,123.86 C 156.25,125.64 157.66,126.52 162.97,127.4 C 171.24,128.76 174.74,130.78 174.74,136.5 C 174.74,142.56 169.75,145.76 161.42,145.76 C 156.19,145.76 151.94,144.75 147.77,142.62 Z" fill="#FFFFFF"/>
<path d="M 179.33,105.84 C 179.33,102.52 181.35,101.52 184.24,101.52 C 187.2,101.52 188.86,102.94 188.86,105.84 C 188.86,108.74 187.08,110.28 184.24,110.28 C 181.22,110.28 179.33,108.86 179.33,105.84 Z M 180.75,115.02 H 187.74 V 145.26 H 180.75 V 115.02 Z" fill="#FFFFFF"/>
<path d="M 192.65,142.62 L 195.61,136.55 C 198.93,138.85 202.6,139.79 206.79,139.79 C 210.58,139.79 212.54,138.67 212.54,136.31 C 212.54,134.35 211,133.41 205.95,132.65 C 198.04,131.41 194.13,129.11 194.13,123.93 C 194.13,118.36 199.31,114.71 207.4,114.71 C 211.93,114.71 215.62,115.65 218.64,117.55 L 215.87,123.27 C 213.19,121.55 210.17,120.66 206.73,120.66 C 202.79,120.66 201.13,121.96 201.13,123.86 C 201.13,125.64 202.54,126.52 207.85,127.4 C 216.12,128.76 219.62,130.78 219.62,136.5 C 219.62,142.56 214.63,145.76 206.3,145.76 C 201.07,145.76 196.82,144.75 192.65,142.62 Z" fill="#FFFFFF"/>
<path d="M 243.91,143.92 C 241.95,145.14 239.39,145.76 236.56,145.76 C 229.85,145.76 226.71,142.17 226.71,134.75 V 120.84 H 221.53 V 115.33 H 226.89 L 227.14,107.54 H 234.14 V 115.33 H 242.26 V 120.84 H 234.14 V 134.69 C 234.14,138.24 235.56,139.66 238.58,139.66 C 239.99,139.66 241.29,139.29 242.51,138.42 L 243.91,143.92 Z" fill="#FFFFFF"/>
<path d="M 69.59,119.05 L 45.73,131.91 L 53.46,136.61 L 53.71,136.73 C 47.98,145.89 40.31,149.74 30.03,149.49 C 22.29,149.31 15.24,146.63 10,141.06 C 16.65,150.94 25.15,157 36.72,157 C 48.61,157 57.96,151.68 63.9,141.9 L 71.45,146.95 L 72.39,147.44 L 69.59,119.05 Z" fill="#FFFFFF"/>
<path d="M 37.21,92.01 C 19.18,92.62 5.66,107.16 5.66,124.67 C 5.66,137.71 16.12,147.06 28.71,147.06 C 33.14,147.06 37.15,146.25 40.53,145.01 C 28.16,146.25 16.53,136.66 16.53,124.73 C 16.53,113.04 25.15,103.63 37.15,103.63 C 45.23,103.63 50.96,106.53 55.33,112.1 L 63.36,104.74 L 63.48,104.61 C 56.95,95.81 48.92,92.01 37.21,92.01 Z" fill="#FFFFFF"/>
</svg>
