<svg width="1024" height="1024" viewBox="0 0 1024 1024" fill="none" xmlns="http://www.w3.org/2000/svg">
  <defs>
    <linearGradient id="bg" x1="126" y1="86" x2="874" y2="938" gradientUnits="userSpaceOnUse">
      <stop stop-color="#8FB0FF"/>
      <stop offset="0.55" stop-color="#5E84E6"/>
      <stop offset="1" stop-color="#3652B8"/>
    </linearGradient>
    <linearGradient id="ring" x1="212" y1="201" x2="808" y2="787" gradientUnits="userSpaceOnUse">
      <stop stop-color="#FFFFFF"/>
      <stop offset="1" stop-color="#F2F6FF"/>
    </linearGradient>
    <filter id="soft" x="0" y="0" width="1024" height="1024" filterUnits="userSpaceOnUse" color-interpolation-filters="sRGB">
      <feGaussianBlur stdDeviation="0.4"/>
    </filter>
  </defs>

  <rect x="0" y="0" width="1024" height="1024" rx="210" fill="url(#bg)"/>

  <g filter="url(#soft)">
    <!-- Main circular stroke -->
    <path d="M788 290C721 208 621 160 512 160C316 160 157 319 157 515C157 711 316 870 512 870C594 870 672 842 735 792"
          stroke="url(#ring)" stroke-width="78" stroke-linecap="round" stroke-linejoin="round"/>

    <!-- Arrow head integrated into G -->
    <path d="M582 585L875 496L740 683L582 585Z" fill="#F8FBFF"/>

    <!-- Bottom swoosh accent -->
    <path d="M170 748C252 823 360 864 478 864C584 864 682 831 761 775"
          stroke="#F5F8FF" stroke-opacity="0.82" stroke-width="26" stroke-linecap="round"/>
  </g>
</svg>
