<svg width="448" height="512" viewBox="0 0 448 512" fill="none" xmlns="http://www.w3.org/2000/svg">
<path d="M404.912 102.741C400.922 102.755 397.074 101.262 394.138 98.56C347.056 55.6373 286.64 32 224.005 32C161.37 32 100.954 55.6373 53.8717 98.5813C50.6882 101.117 46.6599 102.348 42.6027 102.025C38.5455 101.702 34.7629 99.8486 32.0209 96.8408C29.279 93.8331 27.7827 89.8956 27.8352 85.8259C27.8877 81.7563 29.4851 77.8587 32.3037 74.9227C85.317 26.6027 153.392 0 224.005 0C294.618 0 362.693 26.6027 415.706 74.9227C418.091 77.0983 419.761 79.9441 420.498 83.0864C421.236 86.2286 421.005 89.5204 419.838 92.5294C418.67 95.5384 416.62 98.124 413.956 99.9465C411.292 101.769 408.139 102.743 404.912 102.741Z" fill="white"/>
<path d="M432.005 207.296C429.377 207.303 426.789 206.659 424.47 205.424C422.151 204.188 420.174 202.398 418.714 200.213C374.298 134.08 301.509 94.592 224.005 94.592C146.501 94.592 73.7117 134.08 29.2957 200.213C28.1246 201.959 26.6213 203.456 24.8715 204.621C23.1217 205.785 21.1596 206.593 19.0974 206.999C17.0352 207.405 14.9132 207.401 12.8526 206.987C10.792 206.573 8.83304 205.758 7.08769 204.587C5.34233 203.416 3.84472 201.912 2.68036 200.162C1.516 198.413 0.707693 196.451 0.301592 194.388C-0.10451 192.326 -0.100453 190.204 0.313529 188.144C0.727512 186.083 1.54331 184.124 2.71435 182.379C53.0824 107.392 135.813 62.6133 224.005 62.6133C312.197 62.6133 394.928 107.392 445.296 182.4C446.907 184.808 447.833 187.609 447.977 190.503C448.121 193.396 447.476 196.275 446.111 198.831C444.747 201.387 442.714 203.525 440.23 205.015C437.745 206.506 434.902 207.294 432.005 207.296Z" fill="white"/>
<path d="M173.466 512C171.352 512.002 169.258 511.585 167.306 510.772C165.354 509.959 163.583 508.766 162.096 507.264C158.597 503.744 76.613 420.053 76.613 339.477C76.613 255.851 142.725 187.819 224.005 187.819C305.285 187.819 371.397 255.851 371.397 339.477C371.397 343.721 369.711 347.79 366.711 350.791C363.71 353.792 359.641 355.477 355.397 355.477C351.154 355.477 347.084 353.792 344.083 350.791C341.083 347.79 339.397 343.721 339.397 339.477C339.397 273.493 287.642 219.819 224.005 219.819C160.368 219.819 108.613 273.493 108.613 339.477C108.613 407.04 184.069 483.968 184.837 484.736C187.061 486.98 188.571 489.831 189.177 492.932C189.783 496.033 189.457 499.243 188.241 502.159C187.025 505.075 184.973 507.565 182.344 509.316C179.714 511.068 176.626 512.001 173.466 512Z" fill="white"/>
<path d="M274.544 512C236.058 512 146.842 438.784 138.202 357.248C135.152 328.427 144.325 298.944 162.714 278.379C178.714 260.501 200.325 250.581 223.557 250.453H224.005C246.661 250.453 268.08 259.349 284.378 275.541C292.803 283.916 299.476 293.884 304.007 304.865C308.538 315.846 310.836 327.62 310.768 339.499V349.931C310.768 375.637 330.778 396.544 355.397 396.544C380.016 396.544 400.048 375.637 400.048 349.931V346.283C400.048 246.656 327.877 163.776 235.738 157.632C187.717 154.368 141.616 170.965 106.053 204.203C69.1463 238.72 47.9837 288.043 47.9837 339.499C47.9244 381.654 62.1523 422.586 88.3463 455.616C90.9344 458.937 92.1091 463.144 91.6157 467.326C91.1223 471.507 89.0006 475.326 85.7106 477.953C82.4207 480.581 78.2276 481.805 74.0406 481.362C69.8536 480.918 66.0102 478.842 63.3437 475.584C32.634 436.868 15.9406 388.894 15.9837 339.477C15.9837 279.189 40.8583 221.355 84.1863 180.821C126.277 141.44 180.869 121.835 237.85 125.675C346.736 132.949 432.048 229.845 432.048 346.261V349.909C432.048 393.259 397.658 428.523 355.397 428.523C313.136 428.523 278.768 393.259 278.768 349.909V339.477C278.768 323.733 272.752 309.099 261.829 298.219C256.881 293.224 250.993 289.257 244.505 286.548C238.017 283.838 231.057 282.44 224.026 282.432H223.728C205.701 282.517 193.562 291.883 186.565 299.712C174.085 313.643 167.898 333.909 170.01 353.877C177.072 420.395 253.509 480.021 274.544 480.021C278.683 480.173 282.603 481.923 285.478 484.905C288.353 487.887 289.96 491.868 289.96 496.011C289.96 500.153 288.353 504.134 285.478 507.116C282.603 510.098 278.683 511.849 274.544 512Z" fill="white"/>
<path d="M333.914 480.704C276.656 480.704 206.746 410.731 206.746 329.045C206.746 324.802 208.432 320.732 211.433 317.732C214.433 314.731 218.503 313.045 222.746 313.045C226.99 313.045 231.059 314.731 234.06 317.732C237.061 320.732 238.746 324.802 238.746 329.045C238.746 392.363 291.973 448.704 333.914 448.704C338.158 448.704 342.227 450.39 345.228 453.39C348.229 456.391 349.914 460.461 349.914 464.704C349.914 468.947 348.229 473.017 345.228 476.018C342.227 479.018 338.158 480.704 333.914 480.704Z" fill="white"/>
</svg>
