<svg width="427" height="427" viewBox="0 0 427 427" fill="none" xmlns="http://www.w3.org/2000/svg">
<path d="M405.333 234.667C399.675 234.667 394.249 236.914 390.248 240.915C386.248 244.916 384 250.342 384 256V320C384 336.974 377.257 353.253 365.255 365.255C353.253 377.257 336.974 384 320 384H106.667C89.6928 384 73.4142 377.257 61.4118 365.255C49.4095 353.253 42.6667 336.974 42.6667 320V106.667C42.6667 89.6928 49.4095 73.4142 61.4118 61.4118C73.4142 49.4095 89.6928 42.6667 106.667 42.6667H213.333C218.991 42.6667 224.418 40.4191 228.418 36.4183C232.419 32.4175 234.667 26.9913 234.667 21.3333C234.667 15.6754 232.419 10.2492 228.418 6.24839C224.418 2.24761 218.991 0 213.333 0H106.667C78.3873 0.0338743 51.2759 11.2828 31.2794 31.2794C11.2828 51.2759 0.0338743 78.3873 0 106.667V320C0.0338743 348.279 11.2828 375.391 31.2794 395.387C51.2759 415.384 78.3873 426.633 106.667 426.667H320C348.279 426.633 375.391 415.384 395.387 395.387C415.384 375.391 426.633 348.279 426.667 320V256C426.667 250.342 424.419 244.916 420.418 240.915C416.418 236.914 410.991 234.667 405.333 234.667Z" fill="white"/>
<path d="M106.88 237.696C107.526 242.195 109.592 246.37 112.777 249.613C115.962 252.855 120.1 254.996 124.587 255.723C125.715 255.909 126.857 256.002 128 256C131.965 256.002 135.851 254.899 139.224 252.815C142.596 250.731 145.321 247.749 147.093 244.203C173.568 191.232 244.011 188.053 277.333 190.037V234.667C277.334 238.885 278.586 243.009 280.93 246.516C283.274 250.024 286.606 252.757 290.503 254.372C294.401 255.986 298.69 256.408 302.827 255.586C306.965 254.763 310.766 252.732 313.749 249.749L420.416 143.083C422.538 140.962 424.189 138.417 425.261 135.615C426.333 132.812 426.801 129.815 426.636 126.82C426.471 123.824 425.676 120.897 424.303 118.229C422.93 115.561 421.009 113.213 418.667 111.339L312 26.0052C308.862 23.4928 305.078 21.9181 301.084 21.4626C297.09 21.0071 293.049 21.6893 289.426 23.4307C285.802 25.172 282.745 27.9016 280.606 31.3049C278.466 34.7082 277.332 38.6467 277.333 42.6666V83.5839C217.6 80.7892 171.947 94.9972 142.059 125.803C128.643 140.923 118.575 158.707 112.512 177.99C106.45 197.273 104.53 217.619 106.88 237.696Z" fill="white"/>
</svg>
