<svg width="427" height="427" viewBox="0 0 427 427" fill="none" xmlns="http://www.w3.org/2000/svg">
<path d="M142.933 121.067L192 72V276.8C192 289.6 200.533 298.133 213.333 298.133C226.133 298.133 234.667 289.6 234.667 276.8V72L283.733 121.067C292.267 129.6 305.067 129.6 313.6 121.067C322.133 112.533 322.133 99.7333 313.6 91.2L228.267 5.86667C226.133 3.73333 224 1.6 221.867 1.6C217.6 -0.533333 211.2 -0.533333 204.8 1.6C202.667 1.6 200.533 3.73333 198.4 5.86667L113.067 91.2C104.533 99.7333 104.533 112.533 113.067 121.067C121.6 129.6 134.4 129.6 142.933 121.067ZM405.333 255.467C392.533 255.467 384 264 384 276.8V362.133C384 374.933 375.467 383.467 362.667 383.467H64C51.2 383.467 42.6667 374.933 42.6667 362.133V276.8C42.6667 264 34.1333 255.467 21.3333 255.467C8.53333 255.467 0 264 0 276.8V362.133C0 398.4 27.7333 426.133 64 426.133H362.667C398.933 426.133 426.667 398.4 426.667 362.133V276.8C426.667 264 418.133 255.467 405.333 255.467Z" fill="white"/>
</svg>
