<svg preserveAspectRatio="none" width="100%" height="100%" overflow="visible" style="display: block;" viewBox="0 0 140 38.1894" fill="none" xmlns="http://www.w3.org/2000/svg">
<g id="Logo_Consist" opacity="0.12">
<path id="Vector" d="M40.9864 22.2531C40.9864 16.5415 45.276 13.2332 50.7703 13.2332C56.2645 13.2332 60.513 16.6884 60.513 22.2179C60.513 27.6004 56.2998 31.5434 50.7703 31.5434C45.4229 31.5434 40.9864 27.8943 40.9864 22.2531ZM55.9707 22.2179C55.9707 18.5687 53.5614 16.6531 50.7703 16.6531C47.9438 16.6531 45.5287 18.5687 45.5287 22.2179C45.5287 25.7083 47.9791 28.0412 50.7703 28.0412C53.7084 28.0412 55.9707 25.7436 55.9707 22.2179Z" fill="#ffffff"/>
<path id="Vector_2" d="M81.2794 20.7958V31.2907H76.8076V21.1954C76.8076 18.2984 75.5854 16.7589 72.7942 16.7589C69.5211 16.7589 67.9874 18.9507 67.9874 22.3295V31.2907H63.6273V13.5211H67.8053L67.8758 15.7129C69.2626 14.0323 71.1077 13.2332 73.7167 13.2332C78.7468 13.2332 81.2794 15.8951 81.2794 20.7958Z" fill="#ffffff"/>
<path id="Vector_3" d="M83.5066 29.7395L85.2459 26.1727C87.1968 27.5242 89.3534 28.0766 91.8155 28.0766C94.0426 28.0766 95.1943 27.4184 95.1943 26.0317C95.1943 24.8799 94.2894 24.3276 91.3219 23.881C86.6738 23.1523 84.3763 21.8008 84.3763 18.7569C84.3763 15.4839 87.4201 13.3391 92.174 13.3391C94.8359 13.3391 97.0042 13.8914 98.7788 15.0079L97.1511 18.3691C95.5763 17.3584 93.8017 16.8354 91.7803 16.8354C89.465 16.8354 88.4896 17.5993 88.4896 18.7158C88.4896 19.7618 89.3181 20.2789 92.4384 20.796C97.298 21.5951 99.3547 22.7821 99.3547 26.1433C99.3547 29.7043 96.4224 31.5847 91.5276 31.5847C88.4543 31.5847 85.9569 30.9912 83.5066 29.7395Z" fill="#ffffff"/>
<path id="Vector_4" d="M102.052 8.12692C102.052 6.17603 103.239 5.58841 104.937 5.58841C106.676 5.58841 107.652 6.42283 107.652 8.12692C107.652 9.83102 106.606 10.736 104.937 10.736C103.162 10.736 102.052 9.90153 102.052 8.12692ZM102.886 13.5213H106.994V31.2909H102.886V13.5213Z" fill="#ffffff"/>
<path id="Vector_5" d="M109.879 29.7395L111.618 26.1727C113.569 27.5242 115.726 28.0766 118.188 28.0766C120.415 28.0766 121.567 27.4184 121.567 26.0317C121.567 24.8799 120.662 24.3276 117.694 23.881C113.046 23.1523 110.748 21.8008 110.748 18.7569C110.748 15.4839 113.792 13.3391 118.546 13.3391C121.208 13.3391 123.376 13.8914 125.151 15.0079L123.523 18.3691C121.948 17.3584 120.174 16.8354 118.152 16.8354C115.837 16.8354 114.862 17.5993 114.862 18.7158C114.862 19.7618 115.69 20.2789 118.811 20.796C123.67 21.5951 125.727 22.7821 125.727 26.1433C125.727 29.7043 122.795 31.5847 117.9 31.5847C114.827 31.5847 112.329 30.9912 109.879 29.7395Z" fill="#ffffff"/>
<path id="Vector_6" d="M140 30.5035C138.848 31.2204 137.344 31.5847 135.681 31.5847C131.738 31.5847 129.893 29.4751 129.893 25.115V16.9412H126.849V13.7034H129.999L130.146 9.12589H134.259V13.7034H139.03V16.9412H134.259V25.0798C134.259 27.1658 135.093 28.0002 136.868 28.0002C137.697 28.0002 138.46 27.7828 139.177 27.2716L140 30.5035Z" fill="#ffffff"/>
<path id="Vector_7" d="M37.5664 15.8892L23.5458 23.446L28.0881 26.2078L28.235 26.2783C24.868 31.6609 20.3609 33.9232 14.3202 33.7763C9.77202 33.6706 5.6293 32.0957 2.55017 28.8227C6.45784 34.6284 11.4526 38.1893 18.2514 38.1893C25.2382 38.1893 30.7324 35.0632 34.2229 29.3163L38.6594 32.2838L39.2117 32.5717L37.5664 15.8892Z" fill="#ffffff"/>
<path id="Vector_8" d="M18.5394 0C7.94461 0.358448 0 8.90243 0 19.1916C0 26.8542 6.1465 32.3484 13.5446 32.3484C16.1478 32.3484 18.5041 31.8725 20.4903 31.1438C13.2214 31.8725 6.38742 26.2372 6.38742 19.2269C6.38742 12.3576 11.4527 6.82813 18.5041 6.82813C23.2521 6.82813 26.6192 8.53223 29.187 11.8053L33.9056 7.48039L33.9761 7.404C30.139 2.23295 25.4204 0 18.5394 0Z" fill="#ffffff"/>
</g>
</svg>
