<svg width="11" height="11" viewBox="0 0 11 11" fill="none" xmlns="http://www.w3.org/2000/svg">
<path d="M10.9023 8.15823L10.9023 8.1512L10.9254 0.894835C10.9254 0.837367 10.9191 0.780101 10.9068 0.724033L10.8598 0.562802L10.8126 0.467999L10.7605 0.415919C10.6954 0.321371 10.6136 0.239559 10.5191 0.174494L10.4149 0.0703571L10.2916 0.0326952C10.2223 0.0123315 10.1505 0.00133583 10.0781 -1.63556e-07L2.78378 0.0327104C2.29822 0.0320032 1.902 0.425068 1.89884 0.910638L1.89882 0.917667C1.90889 1.39778 2.29446 1.78335 2.77459 1.79343L7.10751 1.78721C7.29282 1.78857 7.44121 1.93991 7.4389 2.12524C7.43784 2.21147 7.40362 2.29415 7.34335 2.35611L0.25894 9.44052C-0.0853189 9.78473 -0.0867708 10.3414 0.255706 10.6839C0.598184 11.0265 1.15485 11.0251 1.49913 10.6809L8.58362 3.59639C8.71683 3.46687 8.92929 3.46929 9.05814 3.60184C9.11807 3.66351 9.15189 3.746 9.15252 3.83222L9.13685 8.15569C9.1445 8.63945 9.53358 9.02853 10.0173 9.03618C10.5029 9.03689 10.8991 8.64382 10.9023 8.15823Z" fill="#00FFA3"/>
</svg>
