<svg width="11" height="11" viewBox="0 0 11 11" fill="none" xmlns="http://www.w3.org/2000/svg">
<path d="M2.78172 10.9025L2.78875 10.9025L10.0451 10.9256C10.1026 10.9256 10.1599 10.9194 10.2159 10.907L10.3772 10.86L10.472 10.8128L10.524 10.7607C10.6186 10.6956 10.7004 10.6138 10.7655 10.5193L10.8696 10.4151L10.9073 10.2918C10.9276 10.2225 10.9386 10.1507 10.94 10.0784L10.9072 2.78399C10.908 2.29843 10.5149 1.90221 10.0293 1.89905L10.0223 1.89903C9.54218 1.90909 9.15661 2.29466 9.14652 2.77479L9.15275 7.10772C9.15139 7.29302 9.00005 7.44142 8.81471 7.4391C8.72849 7.43805 8.64581 7.40383 8.58385 7.34355L1.49944 0.259146C1.15523 -0.0851129 0.598541 -0.0865648 0.256019 0.255912C-0.0865026 0.59839 -0.0851174 1.15505 0.259075 1.49933L7.34357 8.58383C7.47309 8.71703 7.47067 8.9295 7.33812 9.05834C7.27645 9.11827 7.19396 9.1521 7.10773 9.15273L2.78427 9.13705C2.3005 9.14471 1.91143 9.53378 1.90377 10.0175C1.90307 10.5031 2.29613 10.8993 2.78172 10.9025Z" fill="#E84A6A"/>
</svg>
