<svg width="64" height="64" viewBox="0 0 64 64" fill="none" xmlns="http://www.w3.org/2000/svg">
  <circle cx="32" cy="32" r="32" fill="#F7931A"/>
  <path d="M36.965 28.24C38.8017 27.7578 40.1216 26.0754 40.1216 24.0738C40.1216 21.6843 38.1846 19.7473 35.7951 19.7473H34.796V16H31.9072V19.7473H29.4349V16H26.546V19.7473H21V22.6361H23.6384V41.3639H21V44.2527H26.546V48H29.4349V44.2527H31.9072V48H34.796V44.2527H36.7142C39.6157 44.2527 41.9679 41.9005 41.9679 38.999C41.9679 36.6103 40.3727 34.5941 38.189 33.9607C40.3728 33.2656 41.9389 31.2239 41.9389 28.8184C41.9389 25.9169 39.5867 23.5647 36.6852 23.5647H36.5286V28.24H36.965ZM29.4349 22.6361H35.1984C36.1507 22.6361 36.9227 23.4081 36.9227 24.3604C36.9227 25.3126 36.1507 26.0846 35.1984 26.0846H29.4349V22.6361ZM35.9977 41.3639H29.4349V35.3718H35.9977C37.652 35.3718 38.9922 36.712 38.9922 38.3663C38.9922 40.0214 37.652 41.3639 35.9977 41.3639ZM36.3107 32.483H29.4349V28.9734H36.3107C37.7622 28.9734 38.9389 30.1501 38.9389 31.6016C38.9389 33.0531 37.7622 34.2298 36.3107 34.2298V32.483Z" fill="white"/>
</svg>
