<svg width="64" height="64" viewBox="0 0 64 64" fill="none" xmlns="http://www.w3.org/2000/svg">
  <circle cx="32" cy="32" r="32" fill="#26A17B"/>
  <path d="M35.1075 26.3749V21.8867H45.3575V15H18.6426V21.8867H28.8926V26.3675C20.5632 26.7505 14.2852 28.3997 14.2852 30.3744C14.2852 32.3491 20.5632 33.9983 28.8926 34.3887V48.7734H35.1075V34.3813C43.4219 33.9909 49.6926 32.3417 49.6926 30.3744C49.6926 28.4072 43.4219 26.758 35.1075 26.3749ZM35.1075 33.1393V33.1318C34.8978 33.1468 33.8188 33.2142 32.0074 33.2142C30.5582 33.2142 29.5389 33.1692 28.8999 33.1318V33.1393C23.3222 32.8912 19.1567 31.9086 19.1567 30.7317C19.1567 29.5547 23.3222 28.5722 28.8999 28.3166V32.1579C29.5464 32.203 30.6031 32.2554 32.0523 32.2554C33.7889 32.2554 34.8604 32.1805 35.1149 32.1579V28.3241C40.6777 28.5797 44.8358 29.5622 44.8358 30.7317C44.8358 31.9011 40.6777 32.8912 35.1149 33.1393H35.1075Z" fill="white"/>
</svg>
