<svg width="64" height="64" viewBox="0 0 64 64" fill="none" xmlns="http://www.w3.org/2000/svg">
  <circle cx="32" cy="32" r="32" fill="#BDBDBD"/>
  <path d="M24.686 20.457C25.0943 19.5638 26.0118 18.9912 26.9938 19H37.0062C37.9882 18.9912 38.9057 19.5638 39.314 20.457L42.8907 28.284C43.2752 29.1254 42.6605 30.092 41.7356 30.092H22.2644C21.3395 30.092 20.7248 29.1254 21.1093 28.284L24.686 20.457Z" fill="#F3F3F3"/>
  <path d="M12.8331 35.726C13.2511 34.8458 14.1456 34.2838 15.1199 34.283H24.7031C25.6836 34.283 26.582 34.8529 26.9968 35.7414L30.3856 43.0014C30.7781 43.8427 30.1635 44.817 29.2346 44.817H10.5681C9.64091 44.817 9.02626 43.846 9.41557 43.0045L12.8331 35.726Z" fill="#F3F3F3"/>
  <path d="M37.0032 35.7414C37.418 34.8529 38.3164 34.283 39.2969 34.283H48.8801C49.8544 34.2838 50.7489 34.8458 51.1669 35.726L54.5844 43.0045C54.9737 43.846 54.3591 44.817 53.4319 44.817H34.7654C33.8365 44.817 33.2219 43.8427 33.6144 43.0014L37.0032 35.7414Z" fill="#F3F3F3"/>
</svg>
